<?xml version="1.0" encoding="utf-8"?>
<!-- Generator: Adobe Illustrator 27.8.0, SVG Export Plug-In . SVG Version: 6.00 Build 0)  -->
<svg version="1.1" id="Capa_1" xmlns="http://www.w3.org/2000/svg" xmlns:xlink="http://www.w3.org/1999/xlink" x="0px" y="0px"
	 viewBox="0 0 628.92 165.51" style="enable-background:new 0 0 628.92 165.51;" xml:space="preserve">
<style type="text/css">
	.st0{fill:#FFFFFF;}
	.st1{fill:#5C2677;}
</style>
<g>
	<polygon class="st0" points="349.92,45.29 349.97,64.05 339.28,64.07 339.23,45.32 322.55,19.86 335.49,19.83 344.96,36.18 
		354.36,19.78 366.86,19.75 	"/>
	<path class="st0" d="M397.23,65.12c-13.81,0.03-24.09-9.45-24.12-23.45c-0.03-14.19,10.2-23.15,24.01-23.18
		c13.88-0.03,24.15,8.88,24.18,23.07C421.33,55.56,411.1,65.09,397.23,65.12 M397.14,28.12c-7.5,0.02-12.61,5.78-12.59,13.53
		c0.02,8,5.22,13.74,12.66,13.72c7.44-0.02,12.68-5.78,12.66-13.78C409.84,33.84,404.64,28.1,397.14,28.12"/>
	<path class="st0" d="M453.8,64.99c-11.63,0.03-18.89-7.21-18.92-17.83l-0.06-27.56l10.62-0.02l0.06,26.68
		c0.01,4.75,2.33,9.12,8.33,9.11c6.06-0.02,8.3-4.39,8.29-9.14l-0.06-26.69l10.69-0.02l0.07,27.56
		C472.84,57.7,465.36,64.96,453.8,64.99"/>
	<path class="st0" d="M512.12,63.67l-9.61-17.54l-3.63,0.01l0.04,17.57l-10.5,0.02l-0.1-44.25l16.88-0.04
		c8.5-0.02,16.95,3.21,16.97,13.33c0.01,5.94-3.48,10.19-9.16,11.96l11.61,18.91L512.12,63.67z M504.47,28.06l-5.69,0.01l0.03,10.31
		l5.06-0.01c3.44-0.01,7.75-0.89,7.74-5.39C511.6,28.85,507.66,28.05,504.47,28.06"/>
</g>
<polygon class="st0" points="14.11,102.53 24.54,102.51 45.19,135.59 45.31,135.59 45.23,102.46 53.11,102.44 53.21,146.7 
	43.21,146.72 22.13,112.58 22,112.58 22.08,146.77 14.21,146.78 "/>
<polygon class="st0" points="69.8,102.4 99.12,102.34 99.13,109.21 77.69,109.26 77.72,120.51 98.03,120.47 98.05,127.09 
	77.74,127.13 77.76,139.64 100.33,139.59 100.34,146.58 69.9,146.66 "/>
<rect x="114.92" y="102.29" transform="matrix(1 -2.324867e-03 2.324867e-03 1 -0.2889 0.2767)" class="st0" width="7.88" height="44.25"/>
<path class="st0" d="M178.29,144.09c-4.43,2.14-9.74,3.46-16.68,3.48c-14.25,0.03-24.21-9.51-24.24-23.32
	c-0.03-14.19,10.32-23.15,23.95-23.18c7-0.02,13.26,2.22,16.83,5.52l-5.43,5.89c-2.26-2.5-6.57-4.49-11.32-4.48
	c-9.31,0.02-15.36,7.1-15.34,16.23c0.02,9.44,6.04,16.3,15.79,16.27c3.31-0.01,6.25-0.52,8.81-1.58l-0.03-11.25l-9.31,0.02
	l-0.01-6.5l16.94-0.04L178.29,144.09z"/>
<polygon class="st0" points="194.7,102.11 202.57,102.1 202.61,119.97 223.3,119.92 223.26,102.05 231.13,102.03 231.24,146.28 
	223.36,146.3 223.32,126.67 202.63,126.72 202.67,146.35 194.8,146.36 "/>
<path class="st0" d="M247.83,101.99l17.25-0.04c6.69-0.02,13.57,3.03,13.59,11.09c0.01,5-3.11,8.32-7.67,9.7v0.13
	c5.57,0.74,9.57,4.48,9.59,10.42c0.02,9.63-8.34,12.9-16.72,12.92l-15.94,0.04L247.83,101.99z M255.75,119.97l7-0.02
	c5.25-0.01,8.06-2.21,8.05-6.02c-0.01-3.94-2.83-5.5-8.76-5.48l-6.31,0.01L255.75,119.97z M255.79,139.6l7.06-0.02
	c4.07-0.01,9.88-0.84,9.86-6.65c-0.01-4.63-3.2-6.25-9.58-6.23l-7.37,0.02L255.79,139.6z"/>
<path class="st0" d="M316.77,100.7c13.82-0.03,23.9,8.89,23.93,23.08c0.03,13.81-10.01,23.4-23.82,23.43
	c-13.63,0.03-23.71-9.51-23.75-23.32C293.11,109.69,303.15,100.73,316.77,100.7 M316.93,140.14c9.06-0.02,15.23-6.91,15.21-16.35
	c-0.02-9.13-6.1-16.18-15.29-16.16c-9.13,0.02-15.17,7.1-15.15,16.23C301.72,133.3,307.93,140.16,316.93,140.14"/>
<path class="st0" d="M355.22,101.74l15.38-0.04c8.31-0.02,16.32,3.27,16.34,12.65c0.01,6.38-3.91,10.57-10.1,11.96l11.86,19.6
	l-9.5,0.02l-10.29-18.73l-5.75,0.02l0.04,18.75l-7.88,0.02L355.22,101.74z M369.58,120.77c4.44-0.01,9.5-1.08,9.49-6.46
	c-0.01-4.81-4.76-5.99-8.83-5.98l-7.13,0.02l0.03,12.44L369.58,120.77z"/>
<polygon class="st0" points="401.48,101.63 409.35,101.62 409.4,119.49 430.09,119.44 430.05,101.57 437.92,101.55 438.03,145.8 
	430.15,145.82 430.1,126.19 409.41,126.24 409.46,145.87 401.58,145.88 "/>
<path class="st0" d="M476.17,100.33c13.82-0.03,23.9,8.89,23.93,23.08c0.03,13.81-10.01,23.4-23.82,23.43
	c-13.63,0.03-23.71-9.51-23.75-23.32C452.5,109.32,462.55,100.36,476.17,100.33 M476.33,139.77c9.06-0.02,15.23-6.91,15.21-16.35
	c-0.02-9.13-6.1-16.18-15.29-16.16c-9.12,0.02-15.17,7.1-15.15,16.23C461.13,132.93,467.33,139.79,476.33,139.77"/>
<path class="st0" d="M536.19,100.19c13.81-0.03,23.9,8.89,23.93,23.08c0.03,13.81-10.01,23.4-23.82,23.43
	c-13.63,0.03-23.71-9.51-23.74-23.32C512.52,109.19,522.56,100.22,536.19,100.19 M536.34,139.63c9.06-0.02,15.24-6.91,15.21-16.35
	c-0.02-9.13-6.1-16.18-15.29-16.16c-9.12,0.02-15.17,7.1-15.15,16.23C521.14,132.79,527.34,139.65,536.34,139.63"/>
<path class="st0" d="M574.64,101.23l15.69-0.03c11.56-0.03,24.45,5.44,24.49,22.07c0.04,15.5-12.82,22.16-24.39,22.18l-15.69,0.04
	L574.64,101.23z M589.16,138.57c8.13-0.02,17.24-3.35,17.21-15.29c-0.03-12.69-9.16-15.36-17.29-15.34l-6.56,0.02l0.07,30.63
	L589.16,138.57z"/>
<g>
	<polygon class="st0" points="103.5,20.39 132.06,20.33 132.08,27.2 111.39,27.24 111.42,39.37 130.92,39.33 130.94,45.95 
		111.44,46 111.48,64.62 103.6,64.64 	"/>
	<path class="st0" d="M146.25,20.29l15.38-0.04c8.31-0.02,16.32,3.27,16.34,12.65c0.01,6.38-3.91,10.57-10.1,11.96l11.86,19.6
		l-9.5,0.02l-10.29-18.73l-5.75,0.02l0.04,18.75l-7.88,0.02L146.25,20.29z M160.61,39.32c4.44-0.01,9.5-1.08,9.49-6.46
		c-0.01-4.81-4.76-5.99-8.83-5.98l-7.13,0.02l0.03,12.44L160.61,39.32z"/>
	<path class="st0" d="M214.08,19c13.82-0.03,23.9,8.89,23.93,23.08c0.03,13.81-10.01,23.4-23.82,23.43
		c-13.63,0.03-23.71-9.51-23.75-23.32C190.41,28,200.45,19.03,214.08,19 M214.23,58.45c9.06-0.02,15.23-6.91,15.21-16.35
		c-0.02-9.13-6.1-16.18-15.29-16.16c-9.12,0.02-15.17,7.1-15.15,16.23C199.02,51.61,205.23,58.47,214.23,58.45"/>
	<polygon class="st0" points="252.52,20.04 264.84,20.02 276.41,51.43 276.6,51.43 287.9,19.96 300.28,19.93 300.38,64.19 
		292.57,64.2 292.48,28.64 292.36,28.64 279,64.24 273.5,64.25 260.17,28.71 260.04,28.71 260.13,64.28 252.63,64.3 	"/>
	<path class="st1" d="M250.53,55.71c-0.35,1.13-0.98,2.16-1.82,3c-1.24,0.81-2.86,0.73-4.01-0.21c-0.85-0.54-1.61-1.2-2.27-1.97
		c-0.42-0.84-0.79-1.7-1.12-2.57c-0.34,1.07-0.87,2.06-1.57,2.93c-0.68,0.99-1.48,1.89-2.4,2.67c-0.38,0.31-2.15,1.09-2.61,0.25
		c-0.65-1.04-1.2-2.14-1.62-3.29c-0.58,1.3-1.02,2.66-1.71,3.89c-0.7,1.24-1.47,2.44-2.32,3.58c-0.91,1.09-1.91,2.1-3,3.02
		c-0.53,0.51-3.44,2.5-3.92,0.86c-0.28-1.39-0.31-2.82-0.07-4.21c-0.32,0.92-0.48,1.8-0.83,2.73c-0.35,0.93-0.49,1.95-0.92,2.82
		c-0.52,0.83-1.09,1.63-1.71,2.39c-0.54,0.81-0.9,1.76-1.5,2.52c-0.87,1.03-1.88,1.95-2.99,2.71c-1.07,0.83-2.44,1.16-3.77,0.9
		c-1.54-0.51-2.69-1.8-3.02-3.39c-0.75-1.48-1.22-3.08-1.41-4.73c0.12-1.68,0.41-3.34,0.87-4.95c-0.96,0.42-2,0.64-3.05,0.65
		c-1.55-0.2-3-0.91-4.1-2.02c-1.31-0.86-2.35-2.08-3.01-3.5c-1.17-1.06-1.91-2.51-2.06-4.08c-0.37-1.52-0.59-3.08-0.64-4.64
		c0.08-1.55,0.29-3.09,0.62-4.61c0.23-1.64,0.34-3.3,0.68-4.94c-0.69,0.12-1.4,0.17-2.1,0.16c-1.36-0.19-2.64-0.78-3.66-1.71
		c-0.94-0.99-1.61-2.21-1.96-3.53c-0.38-1.28-0.57-2.61-0.57-3.94c-0.2-0.96-0.26-1.95-0.19-2.93c0.23-0.95,0.83-1.77,1.66-2.28
		c2.06-1.29,3.31,0.16,3.37,1.58c0.04,1.62,0.4,3.22,1.08,4.69c0.58,1.39,1.86,2.36,3.35,2.55c0.48-1.84,1.22-3.29,1.75-5.13
		c0.54-1.83,1.39-3.57,1.95-5.37c0.34-1.6,0.8-3.16,1.38-4.69c0.79-1.41,1.71-2.75,2.77-3.98c0.93-1.28,2.1-2.36,3.45-3.19
		c1.29-0.97,2.85-1.51,4.46-1.53c1.94,0.1,3.66,1.29,4.45,3.06c0.8,1.72,1.12,3.62,0.92,5.5c1.09-0.72,2.35-1.11,3.49-1.74
		c1.15-0.63,2.11-1.64,3.31-2.16c0.41-0.16,1.57-0.54,1.95,0.12c0.73,1.27,1.3,2.63,1.69,4.04c0.78-0.41,1.58-0.75,2.41-1.03
		c0.61-0.26,1.89-1.12,2.18-0.04c0.56,1.87,0.67,3.84,0.34,5.76c-0.55,1.82-1.29,3.57-2.2,5.23c0.42,1.47,0.75,2.97,0.97,4.48
		c-0.01,1.52-0.1,3.03-0.27,4.53c-0.08,1.5,0.05,3.04-0.13,4.53c-0.18,1.49-0.62,2.94-0.87,4.42c-0.16,0.92-0.63,1.84-0.84,2.83
		c-0.19,0.94-0.63,1.83-0.91,2.78c-0.38,1-0.56,2.07-0.54,3.14c0.62-1.17,0.25,0.08,0.74-1.14c0.52-1.28,1.22-2.45,1.64-3.64
		c0.53-1.46,0.59-3.29,1.04-4.96c-0.02-1.57,0.69-2.9,0.78-4.45c0.09-1.6-0.08-3.2,0.03-4.72c0.03-0.63,1.45-1.62,2.56-2.53
		c1.23-1.02,2.54-1.89,2.89-0.64c0.37,1.68,0.45,3.41,0.24,5.12c-0.08,1.69-0.32,3.37-0.71,5.01c-0.01,1.14,0.05,2.28,0.16,3.42
		c0.43-1.32,1.13-2.53,2.05-3.57c0.35-0.44,3.02-3.29,3.8-1.95c0.83,1.43,1.8,2.8,2.57,4.27c0.74,1.61,1.85,3.01,3.25,4.1
		C250.15,52.82,250.77,54.27,250.53,55.71 M201.38,55.35c0.16,0,0.31-0.02,0.47-0.06c1.23-0.15,3.01-2.35,3.95-3.18
		c1.04-0.91,2.1-1.84,3.15-2.77c1.06-0.93,2.1-1.86,3.13-2.81c1.03-0.95,2.17-1.79,3.15-2.8c0.04-0.04-0.24-0.32-0.19-0.37
		c0.5-1.51,1.27-3,1.82-4.59c0.52-1.55,1.14-3.08,1.75-4.61c0.62-1.53,1.01-3.17,1.76-4.61c0.76-1.44,1.63-2.81,2.61-4.1
		c-0.17-1.23-0.51-2.43-1.01-3.57c-0.98,0.48-1.92,1.27-2.84,1.84c-0.92,0.57-1.72,1.27-2.6,1.91c-0.12,0.26-0.42,0.28-0.54,0.52
		c-0.69,1.58-1.54,3.09-2.54,4.49c-1.11,1.3-2.33,2.5-3.65,3.6c-1.26,1.14-2.6,2.19-4.01,3.14c-0.14,0.1-0.62-0.06-0.76,0.04
		c-0.73,1.24-0.77,3-1.42,4.48c-0.66,1.38-1.21,2.81-1.66,4.27c-0.57,1.45-0.99,2.96-1.24,4.5
		C200.65,52.24,200.88,53.83,201.38,55.35 M203.02,58.25c0.71,0.76,1.57,1.36,2.53,1.75c0.87,0.29,1.81,0.27,2.67-0.05
		c0.64-1.72,1.6-3.27,2.36-4.96c0.76-1.68,1.59-3.42,2.32-5.11c-0.91,0.82-1.83,1.8-2.76,2.6c-0.92,0.81-1.86,1.57-2.78,2.39
		C206.04,56.03,204.48,57.18,203.02,58.25L203.02,58.25z M220.88,54.47c0.44-1.66,0.83-3.32,1.23-4.99c0.4-1.67,0.62-3.32,1-4.99
		c-0.78,1.41-1.52,2.75-2.27,4.18c-0.75,1.43-1.5,2.87-2.29,4.26c-0.79,1.39-1.66,2.74-2.6,4.04c-0.98,1.26-2.06,2.43-3.23,3.51
		c-0.25,0.24-0.18,0.71-0.44,0.95c-0.41,1.13-0.73,2.28-0.95,3.46c-0.15,1.22-0.16,2.45-0.02,3.67c0.2,1.62,1.09,3.07,2.44,3.98
		c0.09,0.06-0.02,0.13,0.06,0.17c0.1-0.16,0.43-0.15,0.53-0.33c0.67-1.04,1.27-2.12,1.81-3.24c0.67-1.57,0.57-3.45,1.14-5.06
		c0.57-1.61,1.22-3.17,1.72-4.81C219.49,57.62,220.44,56.13,220.88,54.47L220.88,54.47z M200.82,36.09
		c0.72-0.16,1.42-0.37,2.11-0.61c0.2-0.29,0.39-0.67,0.59-0.95c0.85-1.2,1.47-2.58,2.42-3.71c0.94-1.12,2-2.17,3.02-3.22
		c1.03-1.05,2.21-1.93,3.32-2.89c0.11-1.01,0.1-2.02-0.03-3.03c-0.11-0.95-0.46-1.86-1.02-2.64c-1.23-1.84-3.4-2.53-4.55-0.75
		c-0.79,1.36-1.43,2.81-1.89,4.31c-0.52,1.47-1.11,2.93-1.5,4.48c-0.39,1.55-0.33,3.23-0.74,4.7
		C202.14,33.21,201.24,34.61,200.82,36.09 M219.41,43.18c-0.25,0.73-0.54,1.41-0.81,2.13c0.6-1.15,1.24-2.23,1.88-3.37
		C220.12,42.36,219.78,42.77,219.41,43.18"/>
</g>
<path class="st1" d="M455.42,96c0.94-0.72,2.05-1.21,3.21-1.41c1.48,0.05,2.76,1.06,3.15,2.49c0.38,0.93,0.63,1.91,0.72,2.92
	c-0.14,0.92-0.33,1.84-0.57,2.75c0.89-0.67,1.9-1.18,2.98-1.49c1.13-0.42,2.3-0.69,3.5-0.8c0.49-0.03,2.39,0.35,2.28,1.3
	c-0.06,1.23-0.25,2.44-0.57,3.63c1.23-0.73,2.36-1.58,3.64-2.2c1.29-0.61,2.61-1.14,3.96-1.59c1.37-0.36,2.77-0.61,4.19-0.74
	c0.73-0.11,4.25-0.06,3.7,1.56c-0.57,1.3-1.37,2.48-2.37,3.49c0.79-0.57,1.43-1.19,2.25-1.75c0.82-0.56,1.53-1.31,2.38-1.77
	c0.9-0.38,1.83-0.7,2.77-0.97c0.91-0.35,1.75-0.92,2.67-1.19c1.31-0.35,2.66-0.51,4.01-0.49c1.35-0.06,2.66,0.46,3.6,1.43
	c0.96,1.31,1.16,3.03,0.51,4.51c-0.24,1.64-0.78,3.22-1.58,4.68c-1.07,1.3-2.26,2.49-3.57,3.54c1.03,0.21,2,0.63,2.87,1.23
	c1.16,1.06,1.93,2.47,2.19,4.02c0.57,1.46,0.73,3.05,0.45,4.59c0.35,1.54,0.11,3.15-0.67,4.52c-0.57,1.46-1.3,2.85-2.15,4.16
	c-0.96,1.22-2.02,2.36-3.16,3.4c-1.13,1.2-2.18,2.5-3.41,3.64c0.63,0.3,1.24,0.66,1.8,1.08c1.01,0.94,1.71,2.16,2.01,3.5
	c0.19,1.35,0.04,2.73-0.43,4.01c-0.43,1.26-1.03,2.46-1.8,3.55c-0.4,0.9-0.91,1.74-1.54,2.5c-0.74,0.64-1.69,0.96-2.67,0.9
	c-2.43-0.14-2.61-2.05-1.84-3.24c0.91-1.35,1.53-2.86,1.83-4.46c0.32-1.47-0.16-3-1.27-4.02c-1.46,1.23-2.89,1.99-4.39,3.18
	c-1.5,1.19-3.19,2.12-4.69,3.26c-1.2,1.11-2.48,2.12-3.83,3.04c-1.46,0.7-2.99,1.26-4.56,1.66c-1.5,0.51-3.08,0.72-4.65,0.62
	c-1.61,0.05-3.2-0.41-4.53-1.32c-1.53-1.2-2.25-3.16-1.88-5.07c0.34-1.86,1.17-3.6,2.42-5.02c-1.31-0.04-2.56-0.45-3.86-0.59
	c-1.3-0.14-2.66,0.13-3.95-0.15c-0.43-0.1-1.6-0.46-1.52-1.22c0.13-1.46,0.45-2.9,0.95-4.28c-0.87-0.12-1.73-0.3-2.57-0.54
	c-0.65-0.14-2.19-0.18-1.8-1.22c0.63-1.85,1.67-3.53,3.05-4.9c1.5-1.17,3.11-2.17,4.81-3.01c0.5-1.45,1.09-2.85,1.79-4.21
	c0.88-1.23,1.83-2.42,2.84-3.55c0.93-1.19,1.71-2.51,2.72-3.63c1.01-1.11,2.21-2.04,3.26-3.11c0.66-0.66,1.58-1.14,2.31-1.83
	c0.7-0.66,1.57-1.13,2.35-1.75c0.89-0.6,1.65-1.37,2.24-2.26c-1.18,0.6-0.16-0.21-1.26,0.5c-1.16,0.75-2.41,1.3-3.44,2.03
	c-1.27,0.89-2.38,2.34-3.71,3.45c-0.89,1.29-2.24,1.97-3.2,3.19c-1,1.26-1.78,2.66-2.74,3.84c-0.38,0.5-2.12,0.48-3.54,0.59
	c-1.59,0.12-3.16,0.08-2.73-1.14c0.67-1.59,1.6-3.05,2.76-4.32c1.04-1.33,2.2-2.56,3.47-3.68c0.66-0.93,1.28-1.9,1.84-2.89
	c-1.11,0.83-2.38,1.42-3.73,1.74c-0.54,0.15-4.36,0.94-4.23-0.59c0.15-1.65,0.14-3.33,0.36-4.97c0.32-1.74,0.23-3.53-0.29-5.23
	C454.07,98.58,454.4,97.04,455.42,96 M495.38,124.63c-0.13-0.09-0.27-0.16-0.42-0.22c-1.09-0.59-3.81,0.19-5.06,0.32
	c-1.38,0.15-2.77,0.3-4.18,0.45c-1.4,0.15-2.79,0.31-4.18,0.5c-1.39,0.18-2.81,0.22-4.19,0.47c-0.06,0.01,0.01,0.4-0.06,0.41
	c-1.28,0.95-2.77,1.72-4.13,2.71c-1.32,0.96-2.7,1.86-4.09,2.76c-1.39,0.9-2.65,2.01-4.1,2.75c-1.45,0.74-2.95,1.36-4.49,1.85
	c-0.57,1.1-0.99,2.28-1.23,3.5c1.08,0.17,2.29,0.07,3.38,0.13c1.09,0.06,2.13-0.04,3.23-0.06c0.25-0.15,0.51,0.02,0.74-0.11
	c1.47-0.9,3.03-1.64,4.66-2.21c1.66-0.42,3.35-0.7,5.05-0.83c1.68-0.21,3.38-0.29,5.08-0.25c0.17,0.01,0.47,0.41,0.65,0.41
	c1.31-0.6,2.36-2.01,3.74-2.84c1.33-0.75,2.61-1.6,3.82-2.54c1.31-0.85,2.51-1.85,3.61-2.97
	C494.18,127.58,494.92,126.15,495.38,124.63 M495.71,121.31c-0.14-1.03-0.5-2.01-1.05-2.89c-0.54-0.74-1.33-1.27-2.21-1.49
	c-1.52,1.04-3.2,1.75-4.79,2.69c-1.59,0.94-3.27,1.88-4.84,2.83c1.22-0.15,2.54-0.42,3.75-0.54c1.22-0.13,2.43-0.22,3.65-0.35
	C491.96,121.38,493.9,121.34,495.71,121.31L495.71,121.31z M478.93,114.11c-1.32,1.1-2.59,2.23-3.88,3.37s-2.42,2.35-3.69,3.5
	c1.45-0.7,2.83-1.37,4.27-2.11c1.43-0.74,2.88-1.48,4.33-2.16c1.45-0.68,2.94-1.28,4.45-1.8c1.52-0.46,3.08-0.8,4.66-1.01
	c0.34-0.05,0.56-0.48,0.91-0.52c0.98-0.69,1.91-1.45,2.77-2.28c0.83-0.91,1.54-1.91,2.13-2.99c0.77-1.44,0.88-3.14,0.3-4.66
	c-0.04-0.1,0.09-0.1,0.05-0.17c-0.17,0.07-0.44-0.12-0.62-0.04c-1.15,0.46-2.26,1-3.34,1.6c-1.45,0.9-2.45,2.49-3.85,3.48
	c-1.4,0.98-2.83,1.89-4.18,2.95C481.89,112.33,480.25,113,478.93,114.11L478.93,114.11z M484.74,140.69
	c-0.68-0.28-1.37-0.52-2.08-0.72c-0.34,0.12-0.7,0.32-1.03,0.43c-1.39,0.49-2.7,1.26-4.11,1.64c-1.41,0.38-2.88,0.62-4.33,0.89
	c-1.44,0.27-2.92,0.3-4.37,0.45c-0.67,0.76-1.25,1.59-1.72,2.49c-0.46,0.84-0.7,1.79-0.69,2.75c-0.06,2.21,1.32,4.02,3.28,3.24
	c1.43-0.65,2.79-1.47,4.03-2.44c1.27-0.9,2.6-1.76,3.81-2.8c1.22-1.04,2.13-2.45,3.32-3.41
	C481.99,142.28,483.54,141.65,484.74,140.69 M473.63,124.17c0.63-0.45,1.25-0.84,1.89-1.28c-1.16,0.59-2.3,1.11-3.48,1.67
	C472.58,124.44,473.1,124.3,473.63,124.17"/>
</svg>
