<?xml version="1.0" encoding="utf-8"?>
<!-- Generator: Adobe Illustrator 27.8.0, SVG Export Plug-In . SVG Version: 6.00 Build 0)  -->
<svg version="1.1" id="Capa_1" xmlns="http://www.w3.org/2000/svg" xmlns:xlink="http://www.w3.org/1999/xlink" x="0px" y="0px"
	 viewBox="0 0 1000 78.66" style="enable-background:new 0 0 1000 78.66;" xml:space="preserve">
<style type="text/css">
	.st0{fill:#5C2677;}
</style>
<g>
	<polygon points="245.28,42.97 245.32,60.54 235.31,60.56 235.27,42.99 219.63,19.13 231.76,19.1 240.63,34.43 249.44,19.06 
		261.16,19.03 	"/>
	<path d="M289.62,61.55c-12.95,0.03-22.57-8.86-22.61-21.98c-0.03-13.3,9.56-21.69,22.5-21.72c13.01-0.03,22.63,8.32,22.66,21.62
		C312.21,52.59,302.62,61.52,289.62,61.55 M289.54,26.87c-7.03,0.02-11.82,5.42-11.8,12.68c0.02,7.5,4.89,12.88,11.86,12.86
		c6.97-0.02,11.88-5.42,11.86-12.92C301.44,32.23,296.56,26.85,289.54,26.87"/>
	<path d="M342.64,61.43c-10.9,0.02-17.71-6.75-17.73-16.71l-0.06-25.83l9.96-0.02l0.06,25.01c0.01,4.45,2.18,8.55,7.81,8.54
		c5.68-0.01,7.78-4.12,7.77-8.57l-0.06-25.01l10.02-0.02l0.06,25.83C360.49,54.59,353.47,61.4,342.64,61.43"/>
	<path d="M397.29,60.19l-9-16.44l-3.4,0.01l0.04,16.46l-9.84,0.02l-0.1-41.47l15.82-0.04c7.97-0.02,15.88,3.01,15.9,12.5
		c0.01,5.57-3.26,9.55-8.59,11.21l10.88,17.72L397.29,60.19z M390.13,26.81l-5.33,0.01l0.02,9.67l4.74-0.01
		c3.22-0.01,7.26-0.83,7.25-5.05C396.81,27.56,393.11,26.81,390.13,26.81"/>
</g>
<polygon points="426.35,18.61 436.13,18.59 455.48,49.59 455.59,49.59 455.52,18.54 462.9,18.53 463,60 453.62,60.02 433.87,28.02 
	433.75,28.03 433.82,60.07 426.44,60.08 "/>
<polygon points="478.54,18.49 506.02,18.43 506.03,24.87 485.94,24.91 485.97,35.46 505,35.42 505.02,41.62 485.98,41.67 
	486.01,53.39 507.16,53.34 507.17,59.9 478.64,59.96 "/>
<rect x="520.83" y="18.38" transform="matrix(1 -2.324867e-03 2.324867e-03 1 -0.0895 1.2196)" width="7.38" height="41.47"/>
<path d="M580.22,57.56c-4.15,2.01-9.13,3.25-15.63,3.26c-13.36,0.03-22.69-8.91-22.72-21.85c-0.03-13.3,9.67-21.7,22.44-21.73
	c6.56-0.02,12.42,2.08,15.77,5.18l-5.08,5.52c-2.11-2.34-6.16-4.21-10.61-4.2c-8.73,0.02-14.39,6.65-14.37,15.21
	c0.02,8.84,5.66,15.27,14.8,15.25c3.1-0.01,5.86-0.49,8.26-1.49l-0.02-10.54l-8.73,0.02l-0.01-6.09l15.87-0.04L580.22,57.56z"/>
<polygon points="595.6,18.22 602.98,18.2 603.02,34.95 622.41,34.91 622.37,18.16 629.75,18.14 629.85,59.61 622.46,59.63 
	622.42,41.23 603.03,41.28 603.07,59.67 595.69,59.69 "/>
<path d="M645.39,18.1l16.17-0.04c6.27-0.01,12.72,2.84,12.74,10.4c0.01,4.69-2.91,7.8-7.19,9.09v0.12c5.22,0.69,8.97,4.2,8.99,9.76
	c0.02,9.02-7.82,12.09-15.67,12.11l-14.94,0.03L645.39,18.1z M652.82,34.96l6.56-0.01c4.92-0.01,7.55-2.07,7.54-5.64
	c-0.01-3.69-2.65-5.15-8.21-5.14l-5.92,0.01L652.82,34.96z M652.86,53.35l6.62-0.01c3.81-0.01,9.26-0.79,9.24-6.23
	c-0.01-4.34-3-5.86-8.98-5.84l-6.91,0.01L652.86,53.35z"/>
<path d="M710.01,16.89c12.95-0.03,22.4,8.33,22.43,21.63c0.03,12.94-9.38,21.93-22.33,21.96c-12.77,0.03-22.22-8.91-22.25-21.85
	C687.83,25.32,697.24,16.92,710.01,16.89 M710.15,53.86c8.49-0.02,14.28-6.48,14.26-15.32c-0.02-8.56-5.72-15.16-14.33-15.14
	c-8.55,0.02-14.22,6.65-14.2,15.21C695.9,47.45,701.72,53.88,710.15,53.86"/>
<path d="M746.05,17.87l14.41-0.03c7.79-0.02,15.29,3.07,15.32,11.85c0.01,5.98-3.67,9.91-9.46,11.21l11.11,18.37l-8.9,0.02
	l-9.65-17.55l-5.39,0.01l0.04,17.57l-7.38,0.02L746.05,17.87z M759.5,35.7c4.16-0.01,8.9-1.02,8.89-6.06
	c-0.01-4.51-4.47-5.61-8.27-5.6l-6.68,0.01l0.03,11.66L759.5,35.7z"/>
<polygon points="789.4,17.77 796.78,17.75 796.82,34.5 816.21,34.46 816.17,17.71 823.55,17.69 823.65,59.16 816.26,59.18 
	816.22,40.78 796.83,40.83 796.87,59.22 789.49,59.24 "/>
<path d="M859.4,16.55c12.95-0.03,22.4,8.33,22.43,21.63c0.03,12.94-9.38,21.93-22.33,21.96c-12.77,0.03-22.22-8.91-22.25-21.85
	C837.22,24.98,846.63,16.58,859.4,16.55 M859.55,53.51c8.49-0.02,14.28-6.48,14.26-15.32c-0.02-8.56-5.72-15.16-14.33-15.14
	c-8.55,0.02-14.22,6.65-14.2,15.21C845.3,47.1,851.11,53.53,859.55,53.51"/>
<path d="M915.64,16.42c12.95-0.03,22.4,8.33,22.43,21.63c0.03,12.94-9.38,21.93-22.33,21.96c-12.77,0.03-22.22-8.91-22.25-21.85
	C893.46,24.85,902.87,16.44,915.64,16.42 M915.79,53.38c8.49-0.02,14.28-6.48,14.26-15.32c-0.02-8.56-5.72-15.16-14.33-15.14
	c-8.55,0.02-14.22,6.65-14.2,15.21C901.54,46.97,907.35,53.4,915.79,53.38"/>
<path d="M951.68,17.39l14.7-0.03c10.84-0.03,22.91,5.1,22.95,20.68c0.03,14.52-12.02,20.76-22.86,20.79l-14.7,0.03L951.68,17.39z
	 M965.29,52.39c7.62-0.02,16.16-3.14,16.13-14.33c-0.03-11.89-8.58-14.39-16.2-14.38l-6.15,0.01l0.07,28.71L965.29,52.39z"/>
<g>
	<polygon points="14.33,19.63 41.1,19.57 41.12,26.01 21.73,26.05 21.76,37.42 40.03,37.38 40.05,43.58 21.77,43.63 21.81,61.08 
		14.43,61.1 	"/>
	<path d="M54.4,19.54l14.41-0.03c7.79-0.02,15.29,3.07,15.32,11.85c0.01,5.98-3.67,9.91-9.46,11.21l11.11,18.37l-8.9,0.02
		L67.23,43.4l-5.39,0.01l0.04,17.57l-7.38,0.02L54.4,19.54z M67.86,37.37c4.16-0.01,8.9-1.02,8.89-6.06
		c-0.01-4.51-4.47-5.61-8.27-5.6l-6.68,0.01l0.03,11.66L67.86,37.37z"/>
	<path d="M117.97,18.33c12.95-0.03,22.4,8.33,22.43,21.63c0.03,12.94-9.38,21.93-22.33,21.96C105.3,61.94,95.84,53,95.81,40.06
		C95.79,26.76,105.2,18.36,117.97,18.33 M118.11,55.3c8.49-0.02,14.28-6.48,14.26-15.32c-0.02-8.56-5.72-15.16-14.33-15.14
		c-8.55,0.02-14.22,6.65-14.2,15.21C103.86,48.88,109.68,55.32,118.11,55.3"/>
	<polygon points="154,19.3 165.54,19.28 176.39,48.71 176.56,48.71 187.16,19.23 198.76,19.2 198.85,60.67 191.53,60.69 
		191.45,27.36 191.34,27.36 178.82,60.72 173.66,60.73 161.17,27.43 161.05,27.43 161.13,60.76 154.1,60.78 	"/>
	<path class="st0" d="M152.13,52.73c-0.33,1.06-0.92,2.03-1.7,2.82c-1.16,0.76-2.68,0.68-3.76-0.2c-0.8-0.51-1.51-1.13-2.13-1.84
		c-0.39-0.79-0.74-1.59-1.05-2.41c-0.32,1-0.82,1.93-1.47,2.75c-0.63,0.93-1.39,1.77-2.25,2.5c-0.36,0.29-2.01,1.02-2.45,0.24
		c-0.61-0.97-1.12-2.01-1.52-3.09c-0.55,1.22-0.95,2.49-1.6,3.65c-0.66,1.16-1.38,2.29-2.18,3.36c-0.86,1.02-1.79,1.96-2.81,2.83
		c-0.5,0.48-3.22,2.35-3.67,0.81c-0.26-1.3-0.29-2.64-0.07-3.95c-0.3,0.87-0.45,1.69-0.78,2.56c-0.32,0.87-0.46,1.83-0.86,2.65
		c-0.49,0.78-1.02,1.53-1.6,2.24c-0.5,0.76-0.84,1.65-1.4,2.36c-0.81,0.97-1.76,1.82-2.8,2.54c-1,0.78-2.29,1.09-3.53,0.85
		c-1.44-0.48-2.52-1.69-2.83-3.18c-0.7-1.39-1.14-2.89-1.32-4.43c0.12-1.57,0.39-3.13,0.82-4.64c-0.9,0.39-1.88,0.6-2.86,0.61
		c-1.46-0.18-2.81-0.85-3.84-1.89c-1.22-0.81-2.2-1.95-2.82-3.28c-1.1-0.99-1.79-2.35-1.93-3.82c-0.35-1.43-0.55-2.88-0.6-4.35
		c0.07-1.45,0.27-2.9,0.58-4.32c0.22-1.53,0.31-3.09,0.64-4.63c-0.65,0.11-1.31,0.16-1.97,0.15c-1.28-0.18-2.47-0.73-3.43-1.6
		c-0.88-0.93-1.51-2.07-1.84-3.3c-0.36-1.2-0.54-2.44-0.54-3.69c-0.19-0.9-0.25-1.83-0.17-2.75c0.22-0.89,0.78-1.65,1.56-2.13
		c1.93-1.21,3.1,0.15,3.16,1.49c0.03,1.52,0.38,3.01,1.01,4.4c0.54,1.3,1.74,2.21,3.14,2.39c0.45-1.73,1.14-3.09,1.64-4.8
		c0.51-1.72,1.3-3.35,1.83-5.03c0.32-1.5,0.75-2.97,1.29-4.4c0.74-1.33,1.61-2.58,2.59-3.73c0.87-1.2,1.97-2.21,3.23-2.99
		c1.21-0.91,2.67-1.41,4.18-1.43c1.82,0.1,3.43,1.21,4.17,2.87c0.75,1.61,1.05,3.39,0.86,5.16c1.03-0.68,2.2-1.04,3.27-1.63
		c1.08-0.59,1.97-1.54,3.1-2.02c0.38-0.15,1.47-0.51,1.83,0.11c0.69,1.19,1.22,2.46,1.58,3.79c0.73-0.38,1.48-0.7,2.26-0.97
		c0.57-0.25,1.77-1.05,2.04-0.04c0.52,1.75,0.63,3.6,0.31,5.4c-0.52,1.7-1.21,3.34-2.06,4.9c0.4,1.38,0.7,2.78,0.91,4.2
		c-0.01,1.42-0.09,2.84-0.26,4.25c-0.07,1.41,0.05,2.85-0.13,4.24c-0.17,1.39-0.58,2.75-0.81,4.14c-0.15,0.86-0.59,1.72-0.78,2.65
		c-0.18,0.88-0.59,1.71-0.85,2.61c-0.35,0.94-0.52,1.94-0.5,2.94c0.58-1.09,0.24,0.08,0.7-1.07c0.49-1.2,1.14-2.3,1.54-3.41
		c0.5-1.37,0.55-3.08,0.97-4.65c-0.01-1.47,0.65-2.72,0.73-4.17c0.08-1.5-0.07-3,0.02-4.42c0.03-0.59,1.36-1.51,2.4-2.37
		c1.15-0.95,2.38-1.77,2.71-0.6c0.34,1.58,0.42,3.2,0.22,4.8c-0.08,1.58-0.3,3.15-0.67,4.7c0,1.07,0.05,2.14,0.15,3.21
		c0.4-1.23,1.06-2.37,1.92-3.35c0.33-0.41,2.83-3.08,3.56-1.83c0.78,1.34,1.69,2.62,2.41,4c0.69,1.51,1.74,2.83,3.05,3.84
		C151.77,50.02,152.36,51.38,152.13,52.73 M106.06,52.39c0.15,0,0.29-0.02,0.44-0.06c1.16-0.14,2.82-2.2,3.7-2.98
		c0.98-0.86,1.96-1.73,2.95-2.6c0.99-0.87,1.97-1.74,2.94-2.64c0.96-0.89,2.03-1.68,2.95-2.63c0.04-0.04-0.23-0.3-0.18-0.35
		c0.47-1.42,1.19-2.81,1.7-4.31c0.49-1.45,1.07-2.89,1.64-4.32c0.58-1.43,0.95-2.97,1.65-4.32c0.71-1.35,1.52-2.63,2.44-3.84
		c-0.16-1.15-0.48-2.28-0.95-3.34c-0.92,0.45-1.8,1.19-2.66,1.73c-0.87,0.54-1.61,1.19-2.44,1.79c-0.11,0.25-0.4,0.26-0.51,0.48
		c-0.65,1.48-1.44,2.89-2.38,4.21c-1.04,1.22-2.18,2.34-3.42,3.37c-1.18,1.07-2.44,2.05-3.76,2.94c-0.14,0.09-0.58-0.06-0.72,0.03
		c-0.68,1.16-0.72,2.82-1.33,4.2c-0.62,1.29-1.14,2.63-1.55,4c-0.54,1.36-0.93,2.78-1.16,4.22
		C105.39,49.48,105.6,50.97,106.06,52.39 M107.6,55.11c0.66,0.71,1.47,1.27,2.37,1.64c0.81,0.27,1.7,0.26,2.5-0.05
		c0.6-1.61,1.5-3.07,2.21-4.65c0.71-1.58,1.49-3.21,2.18-4.78c-0.85,0.77-1.72,1.69-2.58,2.44c-0.87,0.76-1.74,1.48-2.61,2.24
		C110.43,53.03,108.98,54.11,107.6,55.11L107.6,55.11z M124.34,51.56c0.41-1.55,0.78-3.11,1.15-4.67c0.37-1.57,0.58-3.11,0.93-4.68
		c-0.73,1.32-1.43,2.58-2.13,3.92c-0.7,1.34-1.4,2.69-2.15,3.99c-0.74,1.3-1.56,2.57-2.44,3.79c-0.92,1.18-1.93,2.28-3.03,3.29
		c-0.23,0.23-0.17,0.67-0.41,0.89c-0.38,1.06-0.68,2.14-0.89,3.25c-0.14,1.14-0.15,2.3-0.02,3.44c0.19,1.51,1.02,2.88,2.29,3.73
		c0.09,0.05-0.01,0.12,0.05,0.16c0.1-0.15,0.4-0.14,0.5-0.31c0.63-0.97,1.19-1.99,1.69-3.03c0.62-1.48,0.53-3.23,1.07-4.74
		c0.54-1.51,1.14-2.97,1.61-4.51C123.04,54.52,123.93,53.13,124.34,51.56L124.34,51.56z M105.54,34.34
		c0.67-0.15,1.33-0.34,1.98-0.57c0.19-0.27,0.37-0.63,0.55-0.89c0.8-1.12,1.38-2.42,2.26-3.48c0.88-1.05,1.87-2.03,2.83-3.01
		c0.96-0.98,2.07-1.81,3.11-2.71c0.11-0.94,0.1-1.9-0.03-2.84c-0.1-0.89-0.43-1.75-0.96-2.47c-1.15-1.72-3.18-2.37-4.26-0.7
		c-0.74,1.27-1.34,2.63-1.77,4.04c-0.49,1.38-1.04,2.75-1.41,4.2c-0.37,1.46-0.31,3.03-0.7,4.41
		C106.78,31.64,105.93,32.96,105.54,34.34 M122.97,40.99c-0.24,0.68-0.5,1.32-0.76,2c0.56-1.08,1.16-2.09,1.76-3.16
		C123.63,40.21,123.31,40.61,122.97,40.99"/>
</g>
<path class="st0" d="M839.95,12.49c0.88-0.68,1.92-1.13,3.01-1.32c1.39,0.05,2.58,0.99,2.95,2.33c0.36,0.87,0.59,1.79,0.68,2.73
	c-0.14,0.87-0.31,1.73-0.53,2.58c0.84-0.63,1.78-1.1,2.79-1.4c1.06-0.4,2.16-0.65,3.28-0.75c0.46-0.03,2.24,0.32,2.14,1.22
	c-0.06,1.15-0.24,2.29-0.54,3.4c1.15-0.68,2.21-1.49,3.41-2.06c1.21-0.57,2.45-1.07,3.71-1.49c1.29-0.34,2.6-0.57,3.92-0.69
	c0.68-0.11,3.98-0.06,3.47,1.46c-0.54,1.22-1.29,2.32-2.22,3.27c0.74-0.54,1.34-1.12,2.11-1.64c0.77-0.53,1.43-1.23,2.23-1.66
	c0.85-0.36,1.71-0.66,2.6-0.91c0.85-0.33,1.64-0.86,2.51-1.11c1.23-0.33,2.49-0.48,3.75-0.46c1.27-0.06,2.5,0.43,3.38,1.34
	c0.9,1.23,1.09,2.84,0.48,4.23c-0.23,1.54-0.73,3.02-1.48,4.38c-1,1.22-2.12,2.33-3.34,3.32c0.96,0.2,1.88,0.59,2.69,1.15
	c1.09,0.99,1.81,2.32,2.05,3.76c0.54,1.37,0.68,2.86,0.42,4.31c0.32,1.44,0.1,2.95-0.62,4.24c-0.54,1.37-1.22,2.67-2.02,3.9
	c-0.9,1.14-1.89,2.21-2.97,3.19c-1.06,1.13-2.04,2.34-3.19,3.41c0.59,0.28,1.16,0.62,1.69,1.01c0.94,0.88,1.6,2.03,1.89,3.28
	c0.18,1.27,0.04,2.56-0.4,3.76c-0.4,1.18-0.97,2.3-1.69,3.32c-0.37,0.84-0.86,1.63-1.44,2.35c-0.69,0.6-1.59,0.9-2.5,0.85
	c-2.28-0.13-2.45-1.92-1.73-3.03c0.85-1.26,1.43-2.68,1.71-4.18c0.3-1.38-0.15-2.81-1.19-3.76c-1.37,1.15-2.71,1.87-4.11,2.98
	c-1.4,1.11-2.99,1.99-4.39,3.06c-1.12,1.04-2.32,1.99-3.59,2.85c-1.37,0.66-2.8,1.18-4.27,1.55c-1.4,0.47-2.88,0.67-4.36,0.58
	c-1.51,0.05-3-0.39-4.24-1.24c-1.43-1.13-2.11-2.96-1.76-4.75c0.32-1.75,1.1-3.37,2.27-4.71c-1.23-0.04-2.4-0.42-3.62-0.56
	c-1.22-0.14-2.5,0.12-3.7-0.14c-0.4-0.1-1.5-0.43-1.43-1.14c0.13-1.37,0.42-2.72,0.89-4.01c-0.82-0.11-1.62-0.28-2.41-0.51
	c-0.61-0.13-2.05-0.17-1.69-1.14c0.59-1.73,1.56-3.3,2.86-4.59c1.4-1.09,2.91-2.04,4.51-2.82c0.47-1.36,1.03-2.67,1.68-3.95
	c0.82-1.16,1.71-2.27,2.66-3.32c0.87-1.11,1.6-2.35,2.55-3.4c0.94-1.04,2.07-1.91,3.05-2.91c0.62-0.62,1.48-1.07,2.17-1.72
	c0.66-0.62,1.47-1.06,2.2-1.64c0.83-0.56,1.54-1.28,2.1-2.11c-1.1,0.56-0.15-0.2-1.18,0.47c-1.09,0.7-2.26,1.22-3.22,1.9
	c-1.19,0.83-2.23,2.2-3.47,3.24c-0.83,1.21-2.1,1.85-3,2.99c-0.93,1.18-1.67,2.49-2.57,3.6c-0.36,0.46-1.99,0.45-3.32,0.55
	c-1.49,0.11-2.97,0.08-2.56-1.07c0.63-1.49,1.5-2.86,2.59-4.05c0.98-1.25,2.06-2.4,3.25-3.45c0.62-0.87,1.2-1.78,1.72-2.71
	c-1.04,0.78-2.23,1.33-3.5,1.63c-0.51,0.14-4.09,0.88-3.96-0.56c0.14-1.54,0.13-3.12,0.34-4.65c0.3-1.63,0.21-3.31-0.27-4.9
	C838.69,14.9,838.99,13.46,839.95,12.49 M877.4,39.32c-0.12-0.08-0.25-0.15-0.39-0.21c-1.03-0.55-3.57,0.17-4.74,0.3
	c-1.29,0.14-2.6,0.28-3.91,0.42c-1.31,0.14-2.61,0.29-3.92,0.46c-1.3,0.17-2.63,0.2-3.93,0.44c-0.06,0.01,0.01,0.38-0.05,0.39
	c-1.2,0.89-2.59,1.61-3.87,2.54c-1.23,0.9-2.53,1.74-3.83,2.58c-1.3,0.84-2.49,1.88-3.84,2.58c-1.36,0.69-2.76,1.27-4.21,1.73
	c-0.54,1.03-0.93,2.14-1.15,3.28c1.01,0.16,2.15,0.06,3.17,0.13c1.02,0.06,2-0.04,3.02-0.06c0.23-0.14,0.47,0.02,0.69-0.1
	c1.38-0.84,2.84-1.53,4.37-2.07c1.55-0.39,3.14-0.65,4.74-0.78c1.58-0.19,3.17-0.27,4.76-0.24c0.16,0,0.44,0.38,0.61,0.39
	c1.23-0.56,2.21-1.89,3.51-2.66c1.25-0.7,2.45-1.5,3.58-2.38c1.22-0.8,2.36-1.73,3.38-2.78C876.28,42.09,876.97,40.75,877.4,39.32
	 M877.71,36.21c-0.13-0.96-0.47-1.89-0.98-2.71c-0.51-0.69-1.24-1.19-2.07-1.4c-1.42,0.97-3,1.64-4.49,2.52
	c-1.49,0.88-3.07,1.76-4.54,2.66c1.14-0.14,2.38-0.39,3.52-0.51c1.14-0.12,2.27-0.2,3.42-0.32
	C874.2,36.28,876.01,36.24,877.71,36.21L877.71,36.21z M861.99,29.46c-1.23,1.03-2.43,2.09-3.63,3.15c-1.21,1.07-2.27,2.2-3.46,3.28
	c1.36-0.66,2.65-1.29,4-1.98c1.34-0.69,2.7-1.39,4.06-2.02c1.36-0.64,2.75-1.2,4.17-1.69c1.43-0.43,2.89-0.75,4.37-0.95
	c0.32-0.05,0.52-0.45,0.85-0.49c0.92-0.64,1.79-1.36,2.6-2.14c0.78-0.85,1.45-1.79,2-2.8c0.72-1.35,0.82-2.94,0.28-4.37
	c-0.04-0.09,0.08-0.09,0.04-0.16c-0.16,0.07-0.41-0.11-0.58-0.03c-1.08,0.43-2.12,0.94-3.13,1.5c-1.36,0.84-2.3,2.34-3.61,3.26
	c-1.31,0.92-2.65,1.77-3.92,2.76C864.76,27.79,863.22,28.42,861.99,29.46L861.99,29.46z M867.42,54.37
	c-0.64-0.26-1.29-0.49-1.95-0.68c-0.31,0.12-0.66,0.3-0.96,0.41c-1.3,0.46-2.53,1.18-3.85,1.53c-1.33,0.35-2.7,0.58-4.06,0.83
	c-1.35,0.25-2.73,0.28-4.1,0.42c-0.63,0.71-1.17,1.49-1.61,2.33c-0.43,0.79-0.65,1.68-0.64,2.58c-0.05,2.07,1.24,3.77,3.08,3.03
	c1.34-0.61,2.61-1.38,3.78-2.28c1.19-0.85,2.43-1.65,3.57-2.62c1.14-0.97,2-2.3,3.11-3.2C864.85,55.86,866.31,55.28,867.42,54.37
	 M857.02,38.89c0.59-0.42,1.17-0.79,1.77-1.2c-1.08,0.56-2.16,1.04-3.26,1.57C856.03,39.14,856.52,39.01,857.02,38.89"/>
</svg>
