<?xml version="1.0" encoding="utf-8"?>
<!-- Generator: Adobe Illustrator 27.8.0, SVG Export Plug-In . SVG Version: 6.00 Build 0)  -->
<svg version="1.1" id="Capa_1" xmlns="http://www.w3.org/2000/svg" xmlns:xlink="http://www.w3.org/1999/xlink" x="0px" y="0px"
	 viewBox="0 0 10.45 10.45" style="enable-background:new 0 0 10.45 10.45;" xml:space="preserve">
<style type="text/css">
	.st0{fill:#010202;}
	.st1{fill:#5C2675;}
	.st2{fill:#FFFFFF;}
</style>
<g>
	<path class="st1" d="M6.77,1.42H3.69c-1.25,0-2.27,1.02-2.27,2.27v3.08c0,1.25,1.02,2.27,2.27,2.27h3.08
		c1.25,0,2.27-1.02,2.27-2.27V3.69C9.04,2.44,8.02,1.42,6.77,1.42 M8.27,6.77c0,0.83-0.67,1.5-1.5,1.5H3.69
		c-0.83,0-1.5-0.67-1.5-1.5V3.69c0-0.83,0.67-1.5,1.5-1.5h3.08c0.83,0,1.5,0.67,1.5,1.5V6.77z"/>
	<path class="st1" d="M5.23,3.26c-1.09,0-1.97,0.89-1.97,1.97S4.14,7.2,5.23,7.2c1.09,0,1.97-0.88,1.97-1.97S6.31,3.26,5.23,3.26
		 M5.23,6.43c-0.66,0-1.2-0.54-1.2-1.2c0-0.66,0.54-1.2,1.2-1.2c0.67,0,1.2,0.54,1.2,1.2C6.43,5.89,5.89,6.43,5.23,6.43"/>
	<path class="st1" d="M7.67,3.27c0,0.26-0.21,0.47-0.47,0.47c-0.26,0-0.47-0.21-0.47-0.47c0-0.26,0.21-0.47,0.47-0.47
		C7.46,2.8,7.67,3.01,7.67,3.27"/>
</g>
</svg>
