<?xml version="1.0" encoding="utf-8"?>
<!-- Generator: Adobe Illustrator 27.8.0, SVG Export Plug-In . SVG Version: 6.00 Build 0)  -->
<svg version="1.1" id="Capa_1" xmlns="http://www.w3.org/2000/svg" xmlns:xlink="http://www.w3.org/1999/xlink" x="0px" y="0px"
	 viewBox="0 0 75.09 8.61" style="enable-background:new 0 0 75.09 8.61;" xml:space="preserve">
<style type="text/css">
	.st0{fill:#010202;}
	.st1{fill:#5C2675;}
	.st2{fill:#FFFFFF;}
</style>
<g>
	<polygon class="st2" points="1.42,7.04 1.42,5.9 4.02,2.69 1.48,2.69 1.48,1.56 5.68,1.56 5.68,2.62 3.01,5.9 5.73,5.9 5.73,7.04 	
		"/>
	<polygon class="st2" points="7.45,7.04 7.45,1.56 11.13,1.56 11.13,2.69 8.73,2.69 8.73,3.72 11,3.72 11,4.78 8.73,4.78 8.73,5.91 
		11.27,5.91 11.27,7.04 	"/>
	<path class="st2" d="M14.99,4.98h-0.66v2.07H13V1.56h2.01c1.2,0,2.14,0.43,2.14,1.69C17.16,4.52,16.13,4.98,14.99,4.98 M14.91,2.63
		h-0.58v1.29h0.56c0.5,0,0.95-0.15,0.95-0.67C15.84,2.73,15.38,2.63,14.91,2.63"/>
	<path class="st2" d="M20.79,4.98h-0.66v2.07h-1.32V1.56h2.01c1.2,0,2.14,0.43,2.14,1.69C22.97,4.52,21.94,4.98,20.79,4.98
		 M20.72,2.63h-0.58v1.29h0.56c0.5,0,0.95-0.15,0.95-0.67C21.65,2.73,21.19,2.63,20.72,2.63"/>
	<polygon class="st2" points="24.62,7.04 24.62,1.56 28.31,1.56 28.31,2.69 25.9,2.69 25.9,3.72 28.17,3.72 28.17,4.78 25.9,4.78 
		25.9,5.91 28.45,5.91 28.45,7.04 	"/>
	<polygon class="st2" points="30.18,7.04 30.18,1.56 31.51,1.56 31.51,5.89 33.63,5.89 33.63,7.04 	"/>
	<rect x="35.1" y="1.56" class="st2" width="1.33" height="5.48"/>
	<polygon class="st2" points="41.9,7.04 39.7,3.46 39.68,3.46 39.71,7.04 38.42,7.04 38.42,1.56 39.93,1.56 42.13,5.14 42.15,5.14 
		42.12,1.56 43.4,1.56 43.4,7.04 	"/>
	<path class="st2" d="M48.08,7.19c-1.69,0-2.95-1.18-2.95-2.89c0-1.76,1.3-2.88,2.97-2.88c0.77,0,1.59,0.28,2.05,0.8l-0.9,0.9
		c-0.25-0.34-0.69-0.5-1.11-0.5c-0.92,0-1.58,0.71-1.58,1.68c0,1,0.64,1.68,1.55,1.68c0.52,0,0.93-0.23,1.16-0.56l0.92,0.87
		C49.73,6.84,49,7.19,48.08,7.19"/>
	<polygon class="st2" points="51.63,7.04 51.63,1.56 52.96,1.56 52.96,5.89 55.08,5.89 55.08,7.04 	"/>
	<path class="st2" d="M59.05,7.19c-1.71,0-2.98-1.18-2.98-2.91c0-1.76,1.27-2.86,2.98-2.86c1.72,0,2.99,1.11,2.99,2.86
		C62.04,6.01,60.77,7.19,59.05,7.19 M59.05,2.61c-0.93,0-1.56,0.71-1.56,1.67c0,0.99,0.64,1.7,1.56,1.7c0.92,0,1.57-0.71,1.57-1.7
		C60.62,3.32,59.98,2.61,59.05,2.61"/>
	<polygon class="st2" points="65.88,2.69 65.88,7.04 64.56,7.04 64.56,2.69 63.01,2.69 63.01,1.56 67.43,1.56 67.43,2.69 	"/>
	<polygon class="st2" points="72.35,7.04 72.35,4.75 70.21,4.75 70.21,7.04 68.89,7.04 68.89,1.56 70.21,1.56 70.21,3.64 
		72.35,3.64 72.35,1.56 73.67,1.56 73.67,7.04 	"/>
</g>
</svg>
