<?xml version="1.0" encoding="utf-8"?>
<!-- Generator: Adobe Illustrator 27.8.0, SVG Export Plug-In . SVG Version: 6.00 Build 0)  -->
<svg version="1.1" id="Capa_1" xmlns="http://www.w3.org/2000/svg" xmlns:xlink="http://www.w3.org/1999/xlink" x="0px" y="0px"
	 viewBox="0 0 92.8 10.74" style="enable-background:new 0 0 92.8 10.74;" xml:space="preserve">
<style type="text/css">
	.st0{fill:#010202;}
	.st1{fill:#5C2675;}
	.st2{fill:#FFFFFF;}
</style>
<g>
	<polygon class="st2" points="1.42,6.17 2.92,4.56 1.49,4.56 1.49,4 3.75,4 3.75,4.62 2.24,6.22 3.82,6.22 3.82,6.79 1.42,6.79 	"/>
	<path class="st2" d="M7.74,5.62H5.62C5.65,6.01,6.01,6.3,6.42,6.3C6.76,6.3,7,6.16,7.15,5.94l0.47,0.37
		c-0.27,0.37-0.67,0.56-1.2,0.56c-0.86,0-1.5-0.55-1.5-1.46c0-0.9,0.63-1.49,1.48-1.49c0.78,0,1.35,0.51,1.35,1.51
		C7.75,5.49,7.75,5.55,7.74,5.62 M7.05,5.12c0-0.36-0.2-0.67-0.66-0.67c-0.41,0-0.74,0.29-0.77,0.67H7.05z"/>
	<path class="st2" d="M9.74,4v0.39h0.02c0.14-0.22,0.45-0.47,0.96-0.47c0.8,0,1.35,0.64,1.35,1.46c0,0.81-0.52,1.49-1.37,1.49
		c-0.39,0-0.74-0.17-0.92-0.45H9.76v1.77h-0.7V4H9.74z M10.56,4.49c-0.51,0-0.82,0.47-0.82,0.91c0,0.44,0.31,0.9,0.82,0.9
		c0.54,0,0.8-0.47,0.8-0.91C11.36,4.95,11.1,4.49,10.56,4.49"/>
	<path class="st2" d="M13.98,4v0.39H14c0.14-0.22,0.45-0.47,0.96-0.47c0.8,0,1.35,0.64,1.35,1.46c0,0.81-0.52,1.49-1.37,1.49
		c-0.39,0-0.74-0.17-0.92-0.45h-0.01v1.77h-0.7V4H13.98z M14.81,4.49c-0.51,0-0.82,0.47-0.82,0.91c0,0.44,0.31,0.9,0.82,0.9
		c0.54,0,0.8-0.47,0.8-0.91C15.61,4.95,15.35,4.49,14.81,4.49"/>
	<path class="st2" d="M20.06,5.62h-2.12c0.03,0.39,0.39,0.69,0.8,0.69c0.35,0,0.58-0.14,0.74-0.36l0.47,0.37
		c-0.27,0.37-0.67,0.56-1.2,0.56c-0.86,0-1.5-0.55-1.5-1.46c0-0.9,0.63-1.49,1.48-1.49c0.78,0,1.35,0.51,1.35,1.51
		C20.07,5.49,20.07,5.55,20.06,5.62 M19.37,5.12c0-0.36-0.2-0.67-0.66-0.67c-0.41,0-0.74,0.29-0.77,0.67H19.37z"/>
	<rect x="21.4" y="2.4" class="st2" width="0.7" height="4.39"/>
	<path class="st2" d="M23.94,2.64c0.26,0,0.45,0.18,0.45,0.42c0,0.24-0.2,0.42-0.45,0.42s-0.44-0.2-0.44-0.42S23.69,2.64,23.94,2.64
		 M23.6,4h0.7v2.79h-0.7V4z"/>
	<path class="st2" d="M25.79,4h0.66v0.45h0.01c0.12-0.28,0.45-0.53,0.87-0.53c0.73,0,1.03,0.56,1.03,1.13v1.74h-0.7V5.24
		c0-0.33-0.08-0.74-0.52-0.74c-0.44,0-0.65,0.38-0.65,0.76v1.53h-0.7V4z"/>
	<path class="st2" d="M31.35,4.74c-0.12-0.16-0.35-0.3-0.61-0.3c-0.22,0-0.45,0.08-0.45,0.3c0,0.22,0.21,0.27,0.6,0.37
		c0.41,0.1,0.9,0.28,0.9,0.83c0,0.68-0.55,0.93-1.16,0.93c-0.43,0-0.88-0.16-1.14-0.46l0.46-0.43c0.15,0.2,0.41,0.35,0.71,0.35
		c0.2,0,0.45-0.08,0.45-0.33c0-0.23-0.22-0.3-0.64-0.4c-0.41-0.1-0.83-0.27-0.83-0.79c0-0.62,0.56-0.89,1.11-0.89
		c0.4,0,0.82,0.14,1.05,0.42L31.35,4.74z"/>
	<path class="st2" d="M32.65,4.56V4h0.49V3.19h0.69V4h0.7v0.56h-0.7v1.3c0,0.25,0.06,0.43,0.37,0.43c0.09,0,0.22-0.02,0.3-0.06
		l0.02,0.55c-0.12,0.05-0.31,0.08-0.47,0.08c-0.74,0-0.91-0.45-0.91-0.99v-1.3H32.65z"/>
	<path class="st2" d="M37.4,6.44h-0.02c-0.14,0.24-0.47,0.42-0.87,0.42c-0.45,0-1.05-0.22-1.05-0.87c0-0.83,1.05-0.95,1.92-0.95
		V4.98c0-0.34-0.29-0.51-0.64-0.51c-0.3,0-0.58,0.14-0.76,0.32l-0.36-0.42c0.31-0.29,0.76-0.44,1.18-0.44c1,0,1.24,0.62,1.24,1.17
		v1.7H37.4V6.44z M37.39,5.52h-0.16c-0.44,0-1.06,0.05-1.06,0.46c0,0.27,0.25,0.35,0.49,0.35c0.48,0,0.73-0.27,0.73-0.71V5.52z"/>
	<path class="st2" d="M39.62,4.56h-0.53V4h0.53V3.59c0-0.67,0.26-1.26,1.13-1.26c0.15,0,0.25,0.01,0.35,0.04l-0.05,0.59
		c-0.08-0.02-0.17-0.04-0.27-0.04c-0.4,0-0.47,0.35-0.47,0.63V4h0.65v0.56h-0.65v2.23h-0.7V4.56z"/>
	<path class="st2" d="M44.7,5.62h-2.12c0.03,0.39,0.39,0.69,0.8,0.69c0.35,0,0.58-0.14,0.74-0.36l0.47,0.37
		c-0.27,0.37-0.67,0.56-1.2,0.56c-0.86,0-1.5-0.55-1.5-1.46c0-0.9,0.63-1.49,1.48-1.49c0.78,0,1.35,0.51,1.35,1.51
		C44.7,5.49,44.7,5.55,44.7,5.62 M44,5.12c0-0.36-0.2-0.67-0.66-0.67c-0.41,0-0.74,0.29-0.77,0.67H44z"/>
	<path class="st2" d="M54.86,5.05v1.74h-0.7V5.26c0-0.33-0.07-0.74-0.52-0.74c-0.44,0-0.66,0.38-0.66,0.75v1.52h-0.7V2.4h0.7v1.99
		H53c0.11-0.23,0.42-0.47,0.83-0.47C54.55,3.92,54.86,4.48,54.86,5.05"/>
	<path class="st2" d="M57.67,3.92c0.84,0,1.52,0.59,1.52,1.46c0,0.88-0.67,1.49-1.52,1.49c-0.84,0-1.52-0.61-1.52-1.49
		C56.15,4.51,56.83,3.92,57.67,3.92 M57.67,6.29c0.55,0,0.81-0.47,0.81-0.91c0-0.44-0.26-0.9-0.81-0.9c-0.55,0-0.81,0.46-0.81,0.9
		C56.86,5.82,57.12,6.29,57.67,6.29"/>
	<path class="st2" d="M60.11,4.56V4h0.49V3.19h0.69V4h0.7v0.56h-0.7v1.3c0,0.25,0.06,0.43,0.37,0.43c0.09,0,0.22-0.02,0.3-0.06
		l0.02,0.55c-0.12,0.05-0.31,0.08-0.47,0.08c-0.74,0-0.91-0.45-0.91-0.99v-1.3H60.11z"/>
	<path class="st2" d="M67.49,5.05v1.74h-0.7V5.24c0-0.33-0.08-0.74-0.52-0.74c-0.44,0-0.62,0.41-0.62,0.77v1.52h-0.7V5.11
		c0-0.34-0.16-0.6-0.52-0.6c-0.42,0-0.61,0.38-0.61,0.76v1.53h-0.7V4h0.66v0.45h0.01c0.12-0.27,0.42-0.53,0.87-0.53
		c0.43,0,0.71,0.21,0.87,0.53c0.19-0.34,0.5-0.53,0.92-0.53C67.18,3.92,67.49,4.48,67.49,5.05"/>
	<path class="st2" d="M70.68,6.44h-0.02c-0.14,0.24-0.47,0.42-0.87,0.42c-0.45,0-1.05-0.22-1.05-0.87c0-0.83,1.05-0.95,1.92-0.95
		V4.98c0-0.34-0.29-0.51-0.64-0.51c-0.3,0-0.58,0.14-0.76,0.32l-0.36-0.42c0.31-0.29,0.76-0.44,1.18-0.44c1,0,1.24,0.62,1.24,1.17
		v1.7h-0.65V6.44z M70.67,5.52h-0.16c-0.44,0-1.06,0.05-1.06,0.46c0,0.27,0.25,0.35,0.49,0.35c0.48,0,0.73-0.27,0.73-0.71V5.52z"/>
	<path class="st2" d="M73.14,2.64c0.26,0,0.45,0.18,0.45,0.42c0,0.24-0.2,0.42-0.45,0.42c-0.26,0-0.44-0.2-0.44-0.42
		S72.89,2.64,73.14,2.64 M72.8,4h0.7v2.79h-0.7V4z"/>
	<rect x="75" y="2.4" class="st2" width="0.7" height="4.39"/>
	<path class="st2" d="M77.53,5.93c0.25,0,0.46,0.19,0.46,0.44c0,0.25-0.21,0.45-0.46,0.45c-0.24,0-0.47-0.19-0.47-0.44
		C77.07,6.13,77.28,5.93,77.53,5.93"/>
	<path class="st2" d="M81.26,4.77c-0.11-0.16-0.35-0.27-0.58-0.27c-0.51,0-0.77,0.46-0.77,0.89c0,0.44,0.26,0.9,0.79,0.9
		c0.22,0,0.45-0.09,0.59-0.25l0.44,0.44c-0.23,0.25-0.62,0.39-1.03,0.39c-0.83,0-1.51-0.55-1.51-1.48c0-0.91,0.67-1.48,1.49-1.48
		c0.41,0,0.83,0.16,1.05,0.44L81.26,4.77z"/>
	<path class="st2" d="M84.19,3.92c0.84,0,1.52,0.59,1.52,1.46c0,0.88-0.67,1.49-1.52,1.49c-0.84,0-1.52-0.61-1.52-1.49
		C82.67,4.51,83.34,3.92,84.19,3.92 M84.19,6.29c0.55,0,0.81-0.47,0.81-0.91c0-0.44-0.26-0.9-0.81-0.9c-0.55,0-0.81,0.46-0.81,0.9
		C83.38,5.82,83.64,6.29,84.19,6.29"/>
	<path class="st2" d="M91.38,5.05v1.74h-0.7V5.24c0-0.33-0.08-0.74-0.52-0.74c-0.44,0-0.62,0.41-0.62,0.77v1.52h-0.7V5.11
		c0-0.34-0.16-0.6-0.52-0.6c-0.42,0-0.61,0.38-0.61,0.76v1.53h-0.7V4h0.66v0.45h0.01c0.12-0.27,0.42-0.53,0.87-0.53
		c0.43,0,0.71,0.21,0.87,0.53c0.19-0.34,0.5-0.53,0.92-0.53C91.08,3.92,91.38,4.48,91.38,5.05"/>
	<path class="st1" d="M52.47,7.33c0.12,0.14,0.14,0.34,0.05,0.51c-1.7,2.14-5.58,1.91-7.11-0.32c-0.58-0.92-0.17-3.24,0.32-4.09
		c1-1.74,3.57-2.64,5.32-1.52c0.62,0.34,1.12,0.84,1.46,1.46c0.29,1.01,0.08,2.43-0.67,3.19v0.01C51.63,6.77,51,7.57,50.56,7.63
		c-0.92,0.12-0.81-0.45-0.78-0.67c-0.03-0.43,0-0.77-0.56-0.68c-0.53,0-0.88,0.12-0.91,0.67c0.01,0.43-0.44,1.03-0.89,0.68
		c-0.33-0.28-0.07-0.57,0.02-0.84c0.23-0.63,0.42-1.28,0.56-1.94c0.28-0.6-0.11-1.71,0.8-1.77c0.29,0.05,0.63-0.05,0.88,0.11
		c0.2,0.13,0.3,0.36,0.27,0.59c-0.02,0.55,0.24,0.79,0.34,1.32c0.01,0.11,0.05,0.21,0.12,0.3c0.09,0.06,0.15,0.05,0.24,0.13
		c0.22,0.2,0.02,0.39-0.07,0.52c-0.07,0.11,0.01,0.27,0,0.41c0.01,0.03,0.02,0.06,0.03,0.1c0.05,0.06,0.2,0.01,0.26-0.02
		c0.45-0.36,0.63-1,0.78-1.56c0.25-0.64,0.07-1.38-0.46-1.82c-0.98-0.88-2.43-1-3.53-0.28c-1.92,1.27-2.21,4.85,0.46,5.41
		c0.52,0.12,1.05,0.14,1.58,0.06c0.5-0.07,1.2-0.12,1.56-0.52c0.16-0.29,0.42-0.52,0.73-0.63C52.16,7.13,52.36,7.19,52.47,7.33
		 M49.42,5.42c-0.1-0.27-0.18-0.55-0.25-0.82c-0.02-0.16-0.05-0.25-0.11-0.28c-0.12,0.46-0.23,0.91-0.34,1.36
		c0.18,0.01,0.36-0.01,0.54-0.06C49.46,5.55,49.45,5.54,49.42,5.42"/>
</g>
</svg>
